<svg xmlns="http://www.w3.org/2000/svg" viewBox="0 0 128 128" role="img" aria-label="カブトムシのイラスト">
  <rect width="128" height="128" rx="18" fill="#f4efe9"/>
  <ellipse cx="64" cy="88" rx="26" ry="24" fill="#4b2f1a"/>
  <ellipse cx="64" cy="62" rx="18" ry="16" fill="#5d3a20"/>
  <circle cx="64" cy="46" r="10" fill="#3d2412"/>
  <path d="M64 24c8 7 9 17 6 26h-12c-3-9-2-19 6-26z" fill="#2d180c"/>
  <path d="M62 27c-7 1-15 5-19 12" stroke="#2d180c" stroke-width="4" fill="none" stroke-linecap="round"/>
  <path d="M66 27c7 1 15 5 19 12" stroke="#2d180c" stroke-width="4" fill="none" stroke-linecap="round"/>
  <path d="M44 80 28 70" stroke="#2d180c" stroke-width="5" stroke-linecap="round"/>
  <path d="M44 90 26 90" stroke="#2d180c" stroke-width="5" stroke-linecap="round"/>
  <path d="M44 100 28 110" stroke="#2d180c" stroke-width="5" stroke-linecap="round"/>
  <path d="M84 80 100 70" stroke="#2d180c" stroke-width="5" stroke-linecap="round"/>
  <path d="M84 90 102 90" stroke="#2d180c" stroke-width="5" stroke-linecap="round"/>
  <path d="M84 100 100 110" stroke="#2d180c" stroke-width="5" stroke-linecap="round"/>
</svg>
